<svg width="20" height="20" viewBox="0 0 20 20" fill="none" xmlns="http://www.w3.org/2000/svg">
<path d="M17.6453 7.89219C17.3508 7.58437 17.0461 7.26719 16.9312 6.98828C16.825 6.73281 16.8187 6.30937 16.8125 5.89922C16.8008 5.13672 16.7883 4.27266 16.1875 3.67188C15.5867 3.07109 14.7227 3.05859 13.9602 3.04688C13.55 3.04062 13.1266 3.03437 12.8711 2.92812C12.593 2.81328 12.275 2.50859 11.9672 2.21406C11.4281 1.69609 10.8156 1.10938 10 1.10938C9.18437 1.10938 8.57266 1.69609 8.03281 2.21406C7.725 2.50859 7.40781 2.81328 7.12891 2.92812C6.875 3.03437 6.45 3.04062 6.03984 3.04688C5.27734 3.05859 4.41328 3.07109 3.8125 3.67188C3.21172 4.27266 3.20312 5.13672 3.1875 5.89922C3.18125 6.30937 3.175 6.73281 3.06875 6.98828C2.95391 7.26641 2.64922 7.58437 2.35469 7.89219C1.83672 8.43125 1.25 9.04375 1.25 9.85938C1.25 10.675 1.83672 11.2867 2.35469 11.8266C2.64922 12.1344 2.95391 12.4516 3.06875 12.7305C3.175 12.9859 3.18125 13.4094 3.1875 13.8195C3.19922 14.582 3.21172 15.4461 3.8125 16.0469C4.41328 16.6477 5.27734 16.6602 6.03984 16.6719C6.45 16.6781 6.87344 16.6844 7.12891 16.7906C7.40703 16.9055 7.725 17.2102 8.03281 17.5047C8.57188 18.0227 9.18437 18.6094 10 18.6094C10.8156 18.6094 11.4273 18.0227 11.9672 17.5047C12.275 17.2102 12.5922 16.9055 12.8711 16.7906C13.1266 16.6844 13.55 16.6781 13.9602 16.6719C14.7227 16.6602 15.5867 16.6477 16.1875 16.0469C16.7883 15.4461 16.8008 14.582 16.8125 13.8195C16.8187 13.4094 16.825 12.9859 16.9312 12.7305C17.0461 12.4523 17.3508 12.1344 17.6453 11.8266C18.1633 11.2875 18.75 10.675 18.75 9.85938C18.75 9.04375 18.1633 8.43203 17.6453 7.89219ZM16.743 10.9617C16.3687 11.3523 15.9812 11.7563 15.7758 12.2523C15.5789 12.7289 15.5703 13.2734 15.5625 13.8008C15.5547 14.3477 15.5461 14.9203 15.3031 15.1625C15.0602 15.4047 14.4914 15.4141 13.9414 15.4219C13.4141 15.4297 12.8695 15.4383 12.393 15.6352C11.8969 15.8406 11.493 16.2281 11.1023 16.6023C10.7117 16.9766 10.3125 17.3594 10 17.3594C9.6875 17.3594 9.28516 16.975 8.89766 16.6023C8.51016 16.2297 8.10313 15.8406 7.60703 15.6352C7.13047 15.4383 6.58594 15.4297 6.05859 15.4219C5.51172 15.4141 4.93906 15.4055 4.69687 15.1625C4.45469 14.9195 4.44531 14.3508 4.4375 13.8008C4.42969 13.2734 4.42109 12.7289 4.22422 12.2523C4.01875 11.7563 3.63125 11.3523 3.25703 10.9617C2.88281 10.5711 2.5 10.1719 2.5 9.85938C2.5 9.54688 2.88437 9.14453 3.25703 8.75703C3.62969 8.36953 4.01875 7.9625 4.22422 7.46641C4.42109 6.98984 4.42969 6.44531 4.4375 5.91797C4.44531 5.37109 4.45391 4.79844 4.69687 4.55625C4.93984 4.31406 5.50859 4.30469 6.05859 4.29688C6.58594 4.28906 7.13047 4.28047 7.60703 4.08359C8.10313 3.87812 8.50703 3.49062 8.89766 3.11641C9.28828 2.74219 9.6875 2.35938 10 2.35938C10.3125 2.35938 10.7148 2.74375 11.1023 3.11641C11.4898 3.48906 11.8969 3.87812 12.393 4.08359C12.8695 4.28047 13.4141 4.28906 13.9414 4.29688C14.4883 4.30469 15.0609 4.31328 15.3031 4.55625C15.5453 4.79922 15.5547 5.36797 15.5625 5.91797C15.5703 6.44531 15.5789 6.98984 15.7758 7.46641C15.9812 7.9625 16.3687 8.36641 16.743 8.75703C17.1172 9.14766 17.5 9.54688 17.5 9.85938C17.5 10.1719 17.1156 10.5742 16.743 10.9617ZM13.5672 7.54219C13.6253 7.60023 13.6714 7.66916 13.7029 7.74504C13.7343 7.82091 13.7505 7.90224 13.7505 7.98438C13.7505 8.06651 13.7343 8.14784 13.7029 8.22371C13.6714 8.29959 13.6253 8.36852 13.5672 8.42656L9.19219 12.8016C9.13414 12.8597 9.06521 12.9058 8.98934 12.9372C8.91346 12.9687 8.83213 12.9849 8.75 12.9849C8.66787 12.9849 8.58654 12.9687 8.51066 12.9372C8.43479 12.9058 8.36586 12.8597 8.30781 12.8016L6.43281 10.9266C6.31554 10.8093 6.24965 10.6502 6.24965 10.4844C6.24965 10.3185 6.31554 10.1595 6.43281 10.0422C6.55009 9.92491 6.70915 9.85903 6.875 9.85903C7.04085 9.85903 7.19991 9.92491 7.31719 10.0422L8.75 11.4758L12.6828 7.54219C12.7409 7.48408 12.8098 7.43798 12.8857 7.40653C12.9615 7.37507 13.0429 7.35888 13.125 7.35888C13.2071 7.35888 13.2885 7.37507 13.3643 7.40653C13.4402 7.43798 13.5091 7.48408 13.5672 7.54219Z" fill="white"/>
</svg>
